{
  "asset": {
    "generator": "Khronos glTF Blender I/O v5.0.21",
    "version": "2.0"
  },
  "extensionsUsed": [
    "KHR_lights_punctual",
    "SH_material_layers",
    "KHR_materials_emissive_strength"
  ],
  "extensionsRequired": [
    "KHR_lights_punctual"
  ],
  "extensions": {
    "KHR_lights_punctual": {
      "lights": [
        {
          "color": [
            1,
            1,
            1
          ],
          "intensity": 683,
          "type": "directional",
          "name": "Sun"
        }
      ]
    }
  },
  "scene": 0,
  "scenes": [
    {
      "name": "Scene",
      "nodes": [
        1,
        2,
        3
      ]
    }
  ],
  "nodes": [
    {
      "mesh": 0,
      "name": "Mesh"
    },
    {
      "children": [
        0
      ],
      "name": "Node_0",
      "rotation": [
        -0.70710688829422,
        0,
        0,
        0.7071066498756409
      ]
    },
    {
      "extensions": {
        "KHR_lights_punctual": {
          "light": 0
        }
      },
      "name": "Sun",
      "rotation": [
        -0.7071067690849304,
        0.5000000596046448,
        0,
        0.5
      ],
      "translation": [
        0,
        4.438022613525391,
        0
      ]
    },
    {
      "mesh": 1,
      "name": "Flame",
      "translation": [
        1.5,
        0.0,
        0.0
      ],
      "scale": [
        0.5,
        0.5,
        0.5
      ]
    }
  ],
  "materials": [
    {
      "name": "Layered",
      "pbrMetallicRoughness": {
        "baseColorFactor": [
          0.800000011920929,
          0.0,
          0.0,
          1.0
        ],
        "metallicFactor": 0.0
      },
      "extensions": {
        "SH_material_layers": {
          "surfaceBlend": "BLEND",
          "cullMode": "NONE",
          "baseLayer": 1,
          "layers": [
            {
              "texture": {
                "index": 0
              },
              "blendSrc": "ONE",
              "blendDst": "ZERO",
              "rgbGen": {
                "type": "WAVE",
                "func": "SIN",
                "base": 0.5,
                "amplitude": 0.25,
                "phase": 0.0,
                "frequency": 1.0
              },
              "tcMod": [
                {
                  "type": "SCALE",
                  "value": [
                    2.0,
                    3.0
                  ]
                },
                {
                  "type": "SCROLL",
                  "value": [
                    0.5,
                    0.0
                  ]
                },
                {
                  "type": "ROTATE",
                  "value": 30.0
                },
                {
                  "type": "TURB",
                  "value": [
                    "SIN",
                    0.0,
                    0.125,
                    0.0,
                    1.0
                  ]
                },
                {
                  "type": "STRETCH",
                  "value": [
                    "NONE",
                    1.0,
                    0.5,
                    0.0,
                    2.0
                  ]
                },
                {
                  "type": "TRANSFORM",
                  "value": [
                    1.0,
                    0.0,
                    0.5,
                    0.0,
                    1.0,
                    0.0
                  ]
                }
              ]
            },
            {
              "texture": {
                "index": 1
              },
              "blendSrc": "DST_COLOR",
              "blendDst": "ZERO",
              "rgbGen": {
                "type": "WAVE",
                "base": 0.75,
                "amplitude": 0.25,
                "phase": 0.25,
                "frequency": 0.5
              }
            }
          ]
        }
      }
    },
    {
      "name": "Flame",
      "pbrMetallicRoughness": {
        "baseColorFactor": [
          1.0,
          1.0,
          1.0,
          1.0
        ],
        "metallicFactor": 0.0
      },
      "extensions": {
        "KHR_materials_emissive_strength": {
          "emissiveStrength": 20.0
        },
        "SH_material_layers": {
          "surfaceBlend": "ADD",
          "cullMode": "FRONT",
          "baseLayer": 0,
          "layers": [
            {
              "texture": {
                "index": 2
              },
              "animFreq": 5.0,
              "animFrames": [
                2,
                1
              ],
              "blendSrc": "ONE",
              "blendDst": "ONE",
              "rgbGen": {
                "type": "IDENTITY"
              }
            }
          ]
        }
      }
    }
  ],
  "meshes": [
    {
      "name": "Mesh",
      "primitives": [
        {
          "attributes": {
            "POSITION": 0,
            "NORMAL": 1,
            "TEXCOORD_0": 2,
            "TANGENT": 3
          },
          "indices": 4,
          "material": 0
        }
      ]
    },
    {
      "name": "FlameMesh",
      "primitives": [
        {
          "attributes": {
            "POSITION": 0,
            "NORMAL": 1,
            "TEXCOORD_0": 2,
            "TANGENT": 3
          },
          "indices": 4,
          "material": 1
        }
      ]
    }
  ],
  "accessors": [
    {
      "bufferView": 0,
      "componentType": 5126,
      "count": 24,
      "max": [
        0.5,
        0.5,
        0.5
      ],
      "min": [
        -0.5,
        -0.5,
        -0.5
      ],
      "type": "VEC3"
    },
    {
      "bufferView": 1,
      "componentType": 5126,
      "count": 24,
      "type": "VEC3"
    },
    {
      "bufferView": 2,
      "componentType": 5126,
      "count": 24,
      "type": "VEC2"
    },
    {
      "bufferView": 3,
      "componentType": 5126,
      "count": 24,
      "type": "VEC4"
    },
    {
      "bufferView": 4,
      "componentType": 5123,
      "count": 36,
      "type": "SCALAR"
    }
  ],
  "bufferViews": [
    {
      "buffer": 0,
      "byteLength": 288,
      "byteOffset": 0,
      "target": 34962
    },
    {
      "buffer": 0,
      "byteLength": 288,
      "byteOffset": 288,
      "target": 34962
    },
    {
      "buffer": 0,
      "byteLength": 192,
      "byteOffset": 576,
      "target": 34962
    },
    {
      "buffer": 0,
      "byteLength": 384,
      "byteOffset": 768,
      "target": 34962
    },
    {
      "buffer": 0,
      "byteLength": 72,
      "byteOffset": 1152,
      "target": 34963
    }
  ],
  "buffers": [
    {
      "byteLength": 1224,
      "uri": "scene.bin"
    }
  ],
  "images": [
    {
      "uri": "layer0.png"
    },
    {
      "uri": "layer1.png"
    },
    {
      "uri": "flame0.png"
    }
  ],
  "textures": [
    {
      "source": 0
    },
    {
      "source": 1
    },
    {
      "source": 2
    }
  ]
}
