{
	"asset":{
		"generator":"Khronos glTF Blender I/O v5.0.21",
		"version":"2.0"
	},
	"extensionsUsed":[
		"KHR_lights_punctual"
	],
	"extensionsRequired":[
		"KHR_lights_punctual"
	],
	"extensions":{
		"KHR_lights_punctual":{
			"lights":[
				{
					"color":[
						0.8999999761581421,
						0.800000011920929,
						0.10000000149011612
					],
					"intensity":683,
					"type":"directional",
					"name":"Sun"
				}
			]
		}
	},
	"scene":0,
	"scenes":[
		{
			"name":"Scene",
			"nodes":[
				0,
				1,
				2,
				3
			]
		}
	],
	"nodes":[
		{
			"mesh":0,
			"name":"m0%_r0%",
			"scale":[
				3,
				3,
				3
			],
			"translation":[
				-0.6000000238418579,
				0,
				0
			]
		},
		{
			"mesh":1,
			"name":"m0%_r16%",
			"scale":[
				3,
				3,
				3
			]
		},
		{
			"mesh":2,
			"name":"m0%_r33%",
			"scale":[
				3,
				3,
				3
			],
			"translation":[
				0.6000000238418579,
				0,
				0
			]
		},
		{
			"extensions":{
				"KHR_lights_punctual":{
					"light":0
				}
			},
			"name":"Sun_Orientation",
			"translation":[
				0,
				0,
				3.3488552570343018
			]
		}
	],
	"materials":[
		{
			"name":"mat_0.001",
			"pbrMetallicRoughness":{
				"baseColorFactor":[
					0.6000000238418579,
					0.6000000238418579,
					0.6000000238418579,
					1
				],
				"metallicFactor":0,
				"roughnessFactor":0
			}
		},
		{
			"name":"mat_1.001",
			"pbrMetallicRoughness":{
				"baseColorFactor":[
					0.6000000238418579,
					0.6000000238418579,
					0.6000000238418579,
					1
				],
				"metallicFactor":0,
				"roughnessFactor":0.1599999964237213
			}
		},
		{
			"name":"mat_2.001",
			"pbrMetallicRoughness":{
				"baseColorFactor":[
					0.6000000238418579,
					0.6000000238418579,
					0.6000000238418579,
					1
				],
				"metallicFactor":0,
				"roughnessFactor":0.33000001311302185
			}
		}
	],
	"meshes":[
		{
			"name":"Sphere.098",
			"primitives":[
				{
					"attributes":{
						"POSITION":0,
						"NORMAL":1,
						"TEXCOORD_0":2,
						"TANGENT":3
					},
					"indices":4,
					"material":0
				}
			]
		},
		{
			"name":"Sphere.099",
			"primitives":[
				{
					"attributes":{
						"POSITION":5,
						"NORMAL":6,
						"TEXCOORD_0":7,
						"TANGENT":8
					},
					"indices":4,
					"material":1
				}
			]
		},
		{
			"name":"Sphere.100",
			"primitives":[
				{
					"attributes":{
						"POSITION":9,
						"NORMAL":10,
						"TEXCOORD_0":11,
						"TANGENT":12
					},
					"indices":4,
					"material":2
				}
			]
		}
	],
	"accessors":[
		{
			"bufferView":0,
			"componentType":5126,
			"count":554,
			"max":[
				0.07238142192363739,
				0.07235656678676605,
				0.0723508968949318
			],
			"min":[
				-0.07233134657144547,
				-0.07234840840101242,
				-0.0722845047712326
			],
			"type":"VEC3"
		},
		{
			"bufferView":1,
			"componentType":5126,
			"count":554,
			"type":"VEC3"
		},
		{
			"bufferView":2,
			"componentType":5126,
			"count":554,
			"type":"VEC2"
		},
		{
			"bufferView":3,
			"componentType":5126,
			"count":554,
			"type":"VEC4"
		},
		{
			"bufferView":4,
			"componentType":5123,
			"count":3174,
			"type":"SCALAR"
		},
		{
			"bufferView":5,
			"componentType":5126,
			"count":554,
			"max":[
				0.07238142192363739,
				0.07235656678676605,
				0.0723508968949318
			],
			"min":[
				-0.07233134657144547,
				-0.07234840840101242,
				-0.0722845047712326
			],
			"type":"VEC3"
		},
		{
			"bufferView":6,
			"componentType":5126,
			"count":554,
			"type":"VEC3"
		},
		{
			"bufferView":7,
			"componentType":5126,
			"count":554,
			"type":"VEC2"
		},
		{
			"bufferView":8,
			"componentType":5126,
			"count":554,
			"type":"VEC4"
		},
		{
			"bufferView":9,
			"componentType":5126,
			"count":554,
			"max":[
				0.07238142192363739,
				0.07235656678676605,
				0.0723508968949318
			],
			"min":[
				-0.07233134657144547,
				-0.07234840840101242,
				-0.0722845047712326
			],
			"type":"VEC3"
		},
		{
			"bufferView":10,
			"componentType":5126,
			"count":554,
			"type":"VEC3"
		},
		{
			"bufferView":11,
			"componentType":5126,
			"count":554,
			"type":"VEC2"
		},
		{
			"bufferView":12,
			"componentType":5126,
			"count":554,
			"type":"VEC4"
		}
	],
	"bufferViews":[
		{
			"buffer":0,
			"byteLength":6648,
			"byteOffset":0,
			"target":34962
		},
		{
			"buffer":0,
			"byteLength":6648,
			"byteOffset":6648,
			"target":34962
		},
		{
			"buffer":0,
			"byteLength":4432,
			"byteOffset":13296,
			"target":34962
		},
		{
			"buffer":0,
			"byteLength":8864,
			"byteOffset":17728,
			"target":34962
		},
		{
			"buffer":0,
			"byteLength":6348,
			"byteOffset":26592,
			"target":34963
		},
		{
			"buffer":0,
			"byteLength":6648,
			"byteOffset":32940,
			"target":34962
		},
		{
			"buffer":0,
			"byteLength":6648,
			"byteOffset":39588,
			"target":34962
		},
		{
			"buffer":0,
			"byteLength":4432,
			"byteOffset":46236,
			"target":34962
		},
		{
			"buffer":0,
			"byteLength":8864,
			"byteOffset":50668,
			"target":34962
		},
		{
			"buffer":0,
			"byteLength":6648,
			"byteOffset":59532,
			"target":34962
		},
		{
			"buffer":0,
			"byteLength":6648,
			"byteOffset":66180,
			"target":34962
		},
		{
			"buffer":0,
			"byteLength":4432,
			"byteOffset":72828,
			"target":34962
		},
		{
			"buffer":0,
			"byteLength":8864,
			"byteOffset":77260,
			"target":34962
		}
	],
	"buffers":[
		{
			"byteLength":86124,
			"uri":"scene.bin"
		}
	]
}
